PathFileType	4	(X/Y/Z)	/Users/itak/Documents/Research/Walk-IL/dataset/trc/00352_00011.trc
DataRate	CameraRate	NumFrames	NumMarkers	Units	OrigDataRate	OrigDataStartFrame	OrigNumFrames
100.000000	100.000000	4	55	mm	100.000000	260	695
Frame#	Time	RPSI			LPSI			STRN			T10			C7			CLAV			RBAK			LBAK			LSHO			LUPA			LAEL			LAOL			LWTS			LWPS			LFRA			LIFD			LHPS			LHTS			RSHO			RUPA			RAEL			RAOL			RWTS			RWPS			RFRA			RIFD			RHTS			RHPS			RBHD			LFHD			RFHD			LBHD			LHIP			RASI			LASI			LKNE			LTHI			LANK			LTIP			LTOE			LMT1			LMT5			LHEE			RKNE			RTHI			RANK			RTIP			RTOE			RMT1			RMT5			RHEE			L3			RHIP			*53			*54			
		X1	Y1	Z1	X2	Y2	Z2	X3	Y3	Z3	X4	Y4	Z4	X5	Y5	Z5	X6	Y6	Z6	X7	Y7	Z7	X8	Y8	Z8	X9	Y9	Z9	X10	Y10	Z10	X11	Y11	Z11	X12	Y12	Z12	X13	Y13	Z13	X14	Y14	Z14	X15	Y15	Z15	X16	Y16	Z16	X17	Y17	Z17	X18	Y18	Z18	X19	Y19	Z19	X20	Y20	Z20	X21	Y21	Z21	X22	Y22	Z22	X23	Y23	Z23	X24	Y24	Z24	X25	Y25	Z25	X26	Y26	Z26	X27	Y27	Z27	X28	Y28	Z28	X29	Y29	Z29	X30	Y30	Z30	X31	Y31	Z31	X32	Y32	Z32	X33	Y33	Z33	X34	Y34	Z34	X35	Y35	Z35	X36	Y36	Z36	X37	Y37	Z37	X38	Y38	Z38	X39	Y39	Z39	X40	Y40	Z40	X41	Y41	Z41	X42	Y42	Z42	X43	Y43	Z43	X44	Y44	Z44	X45	Y45	Z45	X46	Y46	Z46	X47	Y47	Z47	X48	Y48	Z48	X49	Y49	Z49	X50	Y50	Z50	X51	Y51	Z51	X52	Y52	Z52	X53	Y53	Z53	X54	Y54	Z54	X55	Y55	Z55	

261	2.6	-417.1357116699219	939.2088623046875	331.505859375	-546.4742431640625	955.5619506835938	325.1512451171875	-454.2875671386719	1186.478271484375	93.57861328125	-506.2360229492188	1133.876586914062	331.9183044433594	-510.9760131835938	1376.65771484375	273.8903503417969	-462.2281188964844	1314.599365234375	129.1911773681641	-462.7932739257812	1237.9267578125	343.6908264160156	-612.7608642578125	1340.963256835938	255.9443664550781	-639.31298828125	1360.401123046875	158.3883819580078	-722.8953247070312	1252.518188476562	143.3099212646484	-773.7363891601562	1068.351196289062	68.75038146972656	-734.7822875976562	1026.315063476562	131.9216918945312	-758.5386352539062	866.7916259765625	-94.7698974609375	-820.1368408203125	855.4437866210938	-65.01665496826172	-797.7720947265625	976.6969604492188	21.6187915802002	-776.0202026367188	723.2832641601562	-155.8583984375	-829.152099609375	790.6542358398438	-88.15129852294922	-788.8281860351562	805.1439208984375	-136.7902069091797	-339.8211059570312	1360.0888671875	268.7903747558594	-288.9748229980469	1300.34716796875	309.3305358886719	-274.1366577148438	1043.309936523438	380.9203796386719	-365.40087890625	1035.095336914062	360.4825134277344	-245.3326416015625	793.4347534179688	329.424560546875	-218.9582061767578	796.6514282226562	401.9415893554688	-252.9947509765625	975.1912841796875	385.0723571777344	-241.1480407714844	625.1797485351562	377.3423461914062	-221.7285308837891	690.7727661132812	347.2880859375	-214.0653228759766	712.64404296875	413.2660827636719	-409.9394836425781	1577.4765625	241.2261810302734	-452.1551818847656	1571.361328125	36.5089225769043	-363.8072814941406	1567.826049804688	84.79428100585938	-547.357177734375	1581.071533203125	196.5814056396484	-651.3021240234375	903.7831420898438	236.8219299316406	-351.8622131347656	915.0374755859375	148.4261169433594	-589.058837890625	920.355224609375	115.548583984375	-651.2857055664062	453.2752990722656	272.8697509765625	-656.6572265625	588.7650756835938	241.6654052734375	-641.1070556640625	57.90787124633789	464.92822265625	-661.59130859375	247.4459838867188	368.2359924316406	-636.4129028320312	41.10928344726562	252.2884063720703	-578.552490234375	30.57886695861816	309.0271606445312	-684.6542358398438	43.32895660400391	349.0826721191406	-567.2765502929688	53.91368865966797	480.8929138183594	-373.4299011230469	445.6737060546875	56.60857009887695	-309.9709167480469	690.715087890625	129.4214477539062	-442.5411071777344	50.97301483154297	-65.00175476074219	-386.1680603027344	344.7945861816406	1.496530413627625	-404.3324279785156	130.2775726318359	-239.2165222167969	-465.7089233398438	107.8385009765625	-217.5381317138672	-380.6464233398438	70.10464477539062	-145.0864868164062	-507.0647583007812	44.90028762817383	-39.5206184387207	-487.3749694824219	1014.020385742188	330.9268798828125	-311.6130065917969	881.1143798828125	250.9460601806641	nan	nan	nan	nan	nan	nan	
262	2.61	-416.5211791992188	937.0150756835938	322.2537536621094	-545.8432006835938	953.9715576171875	315.9132385253906	-453.1961669921875	1184.725463867188	84.80132293701172	-505.4313659667969	1131.799072265625	322.9173583984375	-509.8293151855469	1374.723266601562	265.3497314453125	-460.9169311523438	1312.88525390625	120.5026168823242	-462.0083312988281	1235.80810546875	335.1124572753906	-611.68603515625	1339.151611328125	247.2981719970703	-638.1180419921875	1358.6845703125	149.7226867675781	-721.64111328125	1250.833740234375	134.3219299316406	-772.1600341796875	1067.0048828125	58.47204971313477	-733.8350219726562	1024.635498046875	121.6943664550781	-754.4976196289062	868.0150756835938	-107.4663772583008	-816.3984375	855.7356567382812	-78.61273193359375	-795.6364135742188	975.7731323242188	10.15055847167969	-770.0506591796875	725.46533203125	-171.1723175048828	-824.5436401367188	791.2446899414062	-102.9287872314453	-783.7092895507812	806.9204711914062	-150.8211517333984	-338.5812377929688	1357.911743164062	260.5350646972656	-288.015380859375	1297.79833984375	301.0292053222656	-275.1794738769531	1040.407836914062	372.1307983398438	-366.3157958984375	1032.78955078125	351.0071716308594	-247.3155364990234	790.0767822265625	322.9999084472656	-221.3029327392578	794.1181640625	395.5420227050781	-254.2978363037109	972.4513549804688	376.7252502441406	-245.4101257324219	622.4072875976562	373.7932434082031	-225.0774688720703	687.330810546875	342.6318359375	-217.3751525878906	710.2763671875	408.34716796875	-409.07373046875	1575.850952148438	233.1405792236328	-449.8641052246094	1569.522705078125	28.13544082641602	-361.8184204101562	1566.003784179688	77.05016326904297	-546.17138671875	1579.543701171875	187.5060272216797	-650.8207397460938	902.5172119140625	227.5122985839844	-351.2388610839844	912.4968872070312	139.2080078125	-588.5510864257812	918.585693359375	106.1964111328125	-651.433837890625	452.8141479492188	267.7624816894531	-656.5857543945312	588.0828857421875	235.4287261962891	-641.3125	59.40006637573242	464.4442443847656	-661.6884155273438	248.0470581054688	365.5093383789062	-636.5146484375	41.00468444824219	252.1263580322266	-578.556640625	30.57330703735352	308.8529357910156	-684.7488403320312	43.58206939697266	348.765625	-567.4677734375	55.89896392822266	480.5751037597656	-373.4516296386719	443.021728515625	48.57976913452148	-309.7192077636719	687.2314453125	121.5355377197266	-438.6752319335938	51.56700897216797	-82.84004974365234	-384.5499267578125	344.228271484375	-7.913822174072266	-395.4620056152344	134.4900207519531	-254.4983520507812	-457.4239501953125	111.7847442626953	-234.7555694580078	-374.2470703125	72.71762847900391	-160.7358551025391	-503.7944641113281	44.6653938293457	-59.17214584350586	-486.6217651367188	1011.905029296875	321.4272766113281	-311.0295104980469	878.4927368164062	241.6863403320312	nan	nan	nan	nan	nan	nan	
263	2.62	-415.8378601074219	934.8792724609375	312.9363403320312	-545.0809936523438	952.464599609375	306.5309448242188	-451.8854064941406	1183.024047851562	75.89653015136719	-504.4620056152344	1129.748901367188	313.7579345703125	-508.4530029296875	1372.868530273438	256.700927734375	-459.3443908691406	1311.232177734375	111.6781845092773	-461.0076599121094	1233.749877929688	326.4284057617188	-610.3670043945312	1337.452880859375	238.5539245605469	-636.6692504882812	1357.03466796875	140.9470977783203	-720.0650634765625	1249.156860351562	125.3130569458008	-770.30126953125	1065.60986328125	48.43155288696289	-732.565185546875	1022.968444824219	111.7467880249023	-750.1597900390625	869.0748901367188	-119.658073425293	-812.31884765625	855.907958984375	-91.68440246582031	-793.2135009765625	974.7734375	-0.9690609574317932	-763.7360229492188	727.4637451171875	-185.7691650390625	-819.5888671875	791.7027587890625	-117.1001815795898	-778.2748413085938	808.4964599609375	-164.2431030273438	-337.0991821289062	1355.795043945312	252.1670989990234	-286.81884765625	1295.28515625	292.6217956542969	-275.8458862304688	1037.510864257812	363.1298217773438	-366.8546447753906	1030.526733398438	341.4451599121094	-249.1869506835938	786.7857666015625	316.0986938476562	-223.3122100830078	791.5692138671875	388.5810852050781	-255.2272491455078	969.7162475585938	368.0950012207031	-249.5807189941406	619.7491455078125	369.5178527832031	-228.3681793212891	683.9656982421875	337.3276672363281	-220.4552154541016	707.8358154296875	402.7421569824219	-407.9923400878906	1574.328247070312	225.0160522460938	-447.44189453125	1567.8173828125	19.74563217163086	-359.6755676269531	1564.339111328125	69.25498962402344	-544.7642822265625	1578.0927734375	178.4610595703125	-650.2306518554688	901.3326416015625	218.0973815917969	-350.5151977539062	909.9998168945312	129.8863830566406	-588.00732421875	916.8290405273438	96.77291870117188	-651.6279907226562	452.3797912597656	262.2210388183594	-656.5162963867188	587.430419921875	228.8473968505859	-641.7041625976562	61.14640808105469	463.9066467285156	-661.88525390625	248.7591857910156	362.4958801269531	-636.6343383789062	40.89926528930664	251.9543609619141	-578.56982421875	30.5831127166748	308.6996154785156	-684.9136352539062	43.86206436157227	348.3875122070312	-567.8419799804688	58.16454696655273	480.230224609375	-372.9510803222656	440.9215393066406	39.67090606689453	-309.3182983398438	684.3458251953125	112.9608612060547	-435.3250732421875	51.76519393920898	-97.80254364013672	-382.7261352539062	343.4943237304688	-17.50754928588867	-387.6233215332031	136.7551727294922	-267.5410461425781	-450.0743103027344	114.0841827392578	-249.3772735595703	-368.7008972167969	74.06873321533203	-173.7616424560547	-500.9655151367188	44.43758773803711	-75.78455352783203	-485.7835693359375	1009.85546875	311.83642578125	-310.3836059570312	875.9754028320312	232.3644561767578	nan	nan	nan	nan	nan	nan	
264	2.63	-415.0911560058594	932.8723754882812	303.5401000976562	-544.1912841796875	951.0729370117188	296.9786071777344	-450.3381042480469	1181.406372070312	66.85019683837891	-503.3455505371094	1127.770141601562	304.4366455078125	-506.8462219238281	1371.123657226562	247.9294891357422	-457.5086059570312	1309.66650390625	102.7143936157227	-459.8074340820312	1231.801147460938	317.6286010742188	-608.8082275390625	1335.904663085938	229.6828308105469	-634.954345703125	1355.486206054688	132.029541015625	-718.1604614257812	1247.524047851562	116.23974609375	-768.1485595703125	1064.196655273438	38.62668228149414	-730.9592895507812	1021.350341796875	102.0816802978516	-745.5315551757812	869.9685668945312	-131.32568359375	-807.8968505859375	855.9609985351562	-104.2012329101562	-790.4893188476562	973.719970703125	-11.72890949249268	-757.1445922851562	729.273193359375	-199.6349639892578	-814.314453125	792.0306396484375	-130.6339263916016	-772.5765991210938	809.8663940429688	-177.0431823730469	-335.4002075195312	1353.773803710938	243.6863403320312	-285.4022216796875	1292.849609375	284.121826171875	-276.1416931152344	1034.673461914062	353.9303283691406	-367.0255737304688	1028.344604492188	331.8104248046875	-250.9163818359375	783.6130981445312	308.6914367675781	-224.9626922607422	789.0372924804688	381.0440368652344	-255.7867736816406	967.0306396484375	359.1903076171875	-253.6150512695312	617.2373657226562	364.4654541015625	-231.5757904052734	680.7100219726562	331.3451538085938	-223.2696533203125	705.3502807617188	396.4126892089844	-406.6917724609375	1572.915283203125	216.8638458251953	-444.8756713867188	1566.272338867188	11.3407621383667	-357.3750305175781	1562.85009765625	61.41444396972656	-543.1385498046875	1576.7265625	169.4417419433594	-649.52001953125	900.2341918945312	208.5591430664062	-349.6938171386719	907.632568359375	120.4508972167969	-587.4215087890625	915.1083984375	87.26412963867188	-651.8170166015625	451.9736633300781	256.1851806640625	-656.4327392578125	586.7919921875	221.8371887207031	-642.2684326171875	63.18404388427734	463.2988891601562	-662.1567993164062	249.5955505371094	359.1736450195312	-636.7662353515625	40.79573440551758	251.7769470214844	-578.597412109375	30.6222038269043	308.5615234375	-685.16162109375	44.17827987670898	347.9344482421875	-568.392333984375	60.74949264526367	479.833984375	-371.899658203125	439.3643493652344	29.91487503051758	-308.7344970703125	682.1901245117188	103.6649398803711	-432.5516052246094	51.39922714233398	-109.9025955200195	-380.7468566894531	342.5149841308594	-27.29838371276855	-381.0134887695312	136.9360809326172	-278.4340515136719	-443.8441467285156	114.4807052612305	-261.4933471679688	-364.0924072265625	74.03008270263672	-184.2659759521484	-498.6389770507812	43.9947509765625	-89.3394775390625	-484.879150390625	1007.910339355469	302.1551818847656	-309.6949462890625	873.65576171875	222.9766998291016	nan	nan	nan	nan	nan	nan	
